extratorrent.com 
http://extratorrent.com/torrent/2256926/

Plot:

You can't hurry love.

When implanted in a person's wrist, a TiMER counts down to the day the wearer finds true love. But Oona O'Leary faces the rare dilemma of a blank TiMER. Her soul mate - whoever and wherever he is - has yet to have a TiMER implanted. Staring down the barrel of thirty and tired of waiting for her would-be life partner to get off the dime, Oona breaks her own rules and falls for Mikey, a charming and inappropriately young supermarket clerk with a countdown of four months.

 
General
Complete name                    : TiMER 2009 DVDRip GoGo(Extra Torrent)TiMER 2009 DVDRip GoGo(Extra Torrent).avi
IMDB Link                        : http://www.imdb.com/title/tt1179794/
Format                           : AVI
Format/Info                      : Audio Video Interleave
File size                        : 650 MiB
Duration                         : 1h 39mn
Overall bit rate                 : 909 Kbps
Writing application              : VirtualDubMod 1.5.4.1 (build 2178/release)
Writing library                  : VirtualDubMod build 2178/release

Video
ID                               : 0
Format                           : MPEG-4 Visual
Format profile                   : Advanced Simple@L5
Format settings, BVOP            : Yes
Format settings, QPel            : No
Format settings, GMC             : No warppoints
Format settings, Matrix          : Custom
Codec ID                         : XVID
Codec ID/Hint                    : XviD
Duration                         : 1h 39mn
Bit rate                         : 777 Kbps
Width                            : 672 pixels
Height                           : 352 pixels
Display aspect ratio             : 1.909
Frame rate                       : 23.976 fps
Color space                      : YUV
Chroma subsampling               : 4:2:0
Bit depth                        : 8 bits
Scan type                        : Progressive
Bits/(Pixel*Frame)               : 0.137
Stream size                      : 556 MiB (85%)
Writing library                  : XviD 1.2.1 (UTC 2008-12-04)

Audio
ID                               : 1
Format                           : MPEG Audio
Format version                   : Version 1
Format profile                   : Layer 3
Mode                             : Joint stereo
Mode extension                   : MS Stereo
Codec ID                         : 55
Codec ID/Hint                    : MP3
Duration                         : 1h 39mn
Bit rate mode                    : Variable
Bit rate                         : 120 Kbps
Nominal bit rate                 : 128 Kbps
Channel(s)                       : 2 channels
Sampling rate                    : 48.0 KHz
Stream size                      : 85.6 MiB (13%)
Alignment                        : Aligned on interleaves
Interleave, duration             : 24 ms (0.58 video frame)
Interleave, preload duration     : 154 ms
Writing library                  : LAME3.98r
Encoding settings                : -m j -V 4 -q 2 -lowpass 17 --abr 128
Language                         : English
Subtitles                        : None
Genre                            : Comedy | Drama | Fantasy | Romance
